<?xml version="1.0" encoding="UTF-8" standalone="no"?>
<!-- Created with Inkscape (http://www.inkscape.org/) -->

<svg
   xmlns:dc="http://purl.org/dc/elements/1.1/"
   xmlns:cc="http://creativecommons.org/ns#"
   xmlns:rdf="http://www.w3.org/1999/02/22-rdf-syntax-ns#"
   xmlns:svg="http://www.w3.org/2000/svg"
   xmlns="http://www.w3.org/2000/svg"
   xmlns:sodipodi="http://sodipodi.sourceforge.net/DTD/sodipodi-0.dtd"
   xmlns:inkscape="http://www.inkscape.org/namespaces/inkscape"
   width="120"
   height="120"
   id="svg2"
   version="1.1"
   inkscape:version="0.48.5 r10040"
   sodipodi:docname="New document 1">
  <defs
     id="defs4" />
  <sodipodi:namedview
     id="base"
     pagecolor="#ffffff"
     bordercolor="#666666"
     borderopacity="1.0"
     inkscape:pageopacity="0.0"
     inkscape:pageshadow="2"
     inkscape:zoom="1.979899"
     inkscape:cx="74.868848"
     inkscape:cy="160.12616"
     inkscape:document-units="px"
     inkscape:current-layer="g3039"
     showgrid="false"
     inkscape:window-width="1920"
     inkscape:window-height="1017"
     inkscape:window-x="-8"
     inkscape:window-y="-8"
     inkscape:window-maximized="1" />
  <metadata
     id="metadata7">
    <rdf:RDF>
      <cc:Work
         rdf:about="">
        <dc:format>image/svg+xml</dc:format>
        <dc:type
           rdf:resource="http://purl.org/dc/dcmitype/StillImage" />
        <dc:title></dc:title>
      </cc:Work>
    </rdf:RDF>
  </metadata>
  <g
     inkscape:label="Layer 1"
     inkscape:groupmode="layer"
     id="layer1"
     transform="translate(0,-932.36218)">
    <g
       id="g3039"
       transform="translate(9.2076124,833.24766)">
      <path
         id="path3027"
         d="m 99.976251,122.88184 c -2.74444,-2.74312 -95.4341818,-2.04418 -97.4757308,0 -2.20871612,2.20872 -2.21661382,60.59228 0,62.80363 0.734484,0.7358 15.9941068,1.17938 34.2324698,1.33207 l 4.038344,-11.16994 c 0,0 2.615446,-10.58289 10.42493,-10.58289 8.235958,0 11.833349,12.735 11.833349,12.735 l 3.363093,9.01388 c 17.944832,-0.15269 32.850375,-0.59627 33.583545,-1.32681 2.044179,-2.0455 2.633869,-60.17106 0,-62.80494 z m -75.158219,43.77813 c -7.9806,0 -14.450112,-6.4682 -14.450112,-14.45143 0,-7.9806 6.469512,-14.45011 14.450112,-14.45011 7.9806,0 14.451427,6.46951 14.451427,14.45011 0,7.98323 -6.470827,14.45143 -14.451427,14.45143 z m 52.337888,0 c -7.9806,0 -14.451428,-6.4682 -14.451428,-14.45143 0,-7.9806 6.470828,-14.45011 14.451428,-14.45011 7.979283,0 14.450111,6.46951 14.450111,14.45011 0,7.98323 -6.470828,14.45143 -14.450111,14.45143 z"
         inkscape:connector-curvature="0"
         style="fill:#ffffff" />
    </g>
  </g>
</svg>
