<?xml version="1.0" encoding="UTF-8" standalone="no"?>
<!-- Created with Inkscape (http://www.inkscape.org/) -->
<svg xmlns:dc="http://purl.org/dc/elements/1.1/" xmlns:cc="http://creativecommons.org/ns#" xmlns:rdf="http://www.w3.org/1999/02/22-rdf-syntax-ns#" xmlns:svg="http://www.w3.org/2000/svg" xmlns="http://www.w3.org/2000/svg" xmlns:sodipodi="http://sodipodi.sourceforge.net/DTD/sodipodi-0.dtd" xmlns:inkscape="http://www.inkscape.org/namespaces/inkscape" width="64px" height="64px" id="svg2985" version="1.1" inkscape:version="0.48.5 r10040" sodipodi:docname="inodoro.svg">
  <defs id="defs2987"/>
  <sodipodi:namedview id="base" pagecolor="#ffffff" bordercolor="#666666" borderopacity="1.0" inkscape:pageopacity="0.0" inkscape:pageshadow="2" inkscape:zoom="9.3198281" inkscape:cx="42.148771" inkscape:cy="27.69909" inkscape:current-layer="g3018" showgrid="true" inkscape:document-units="px" inkscape:grid-bbox="true" inkscape:window-width="1920" inkscape:window-height="1017" inkscape:window-x="-8" inkscape:window-y="-8" inkscape:window-maximized="1"/>
  <metadata id="metadata2990">
    <rdf:RDF>
      <cc:Work rdf:about="">
        <dc:format>image/svg+xml</dc:format>
        <dc:type rdf:resource="http://purl.org/dc/dcmitype/StillImage"/>
        <dc:title/>
      </cc:Work>
    </rdf:RDF>
  </metadata>
  <g id="layer1" inkscape:label="Layer 1" inkscape:groupmode="layer">
    <g id="g3007" transform="translate(-2.5628995,-5.4715776)">
      <g id="g3154" transform="matrix(0.54318055,0,0,0.59518072,8.7735861,5.6745114)" style="fill:#aa4400">
        <g id="g3018" style="fill:#aa4400">
          <path style="fill:#ffffff" inkscape:connector-curvature="0" d="m 69.652922,10.825617 -12.689489,2.410161 c -1.320204,-0.704603 -5.015291,0 -5.015291,0 -32.46515,5.365368 -45.7502564,11.700863 -45.7502564,11.700863 -2.0233242,0.879641 -2.287365,2.991968 -2.287365,2.991968 l -0.5265973,0.439079 c -0.2447571,0.439079 -0.2981589,1.553094 -0.2981589,2.459436 7.8114526,5.380202 16.6790696,7.934574 16.7740056,7.962758 8.185264,2.726443 20.249555,1.56051 20.371192,1.548643 17.119632,-1.634679 40.571793,-13.323674 40.806167,-13.442345 0,0 0.529565,-0.145371 1.222301,0.547365 0.72537,0.726855 -0.274425,1.339488 -0.274425,1.339488 -0.973094,0.489514 -24.044028,11.985672 -41.547855,13.657435 -0.231406,0.02373 -2.889614,0.278875 -6.523883,0.278875 -4.321072,0 -10.023167,-0.363427 -14.675031,-1.913554 -0.350076,-0.0979 -8.708896,-2.506905 -16.55595,-7.701684 0,0.0029 -0.00153,0.01335 -0.00153,0.01335 2.287365,18.123878 19.180041,24.107814 19.180041,24.107814 l -1.935805,28.329499 c 1.407724,3.520049 8.62286,6.335494 8.62286,6.335494 7.390175,2.287365 13.900709,0.703121 13.900709,0.703121 15.661525,-3.695083 42.5833,-17.244232 42.5833,-17.244232 l -0.528085,-9.677545 c -0.703119,-3.167005 -5.630892,-3.871608 -5.630892,-3.871608 -0.528081,-10.382143 2.110843,-23.931292 2.110843,-23.931292 0.703119,-5.279333 2.110843,-5.45437 2.110843,-5.45437 8.974419,-3.870126 7.566697,-8.62286 7.566697,-8.62286 1.803073,-5.654421 -0.09805,-9.930728 -21.008345,-12.965859 z M 66.553454,27.311525 C 46.757812,35.099244 32.240019,35.229781 32.240019,35.229781 21.154757,33.997097 14.467702,29.422368 14.467702,29.422368 11.828777,27.135003 13.763098,26.07884 13.763098,26.07884 c 7.918257,-3.520049 38.888163,-8.797898 38.888163,-8.797898 2.991968,-0.704604 15.661475,6.685572 15.661475,6.685572 2.815447,1.937288 -1.759282,3.345011 -1.759282,3.345011 z" id="path3020" sodipodi:nodetypes="cccccccccccccsccccccccccccccccccccc"/>
        </g>
      </g>
    </g>
  </g>
</svg>