<?xml version="1.0" encoding="UTF-8" standalone="no"?>
<!-- Created with Inkscape (http://www.inkscape.org/) -->
<svg xmlns:dc="http://purl.org/dc/elements/1.1/" xmlns:cc="http://creativecommons.org/ns#" xmlns:rdf="http://www.w3.org/1999/02/22-rdf-syntax-ns#" xmlns:svg="http://www.w3.org/2000/svg" xmlns="http://www.w3.org/2000/svg" xmlns:sodipodi="http://sodipodi.sourceforge.net/DTD/sodipodi-0.dtd" xmlns:inkscape="http://www.inkscape.org/namespaces/inkscape" width="64px" height="64px" id="svg2985" version="1.1" inkscape:version="0.48.5 r10040" sodipodi:docname="baniera.svg">
  <defs id="defs2987"/>
  <sodipodi:namedview id="base" pagecolor="#ffffff" bordercolor="#666666" borderopacity="1.0" inkscape:pageopacity="0.0" inkscape:pageshadow="2" inkscape:zoom="9.3198281" inkscape:cx="42.148771" inkscape:cy="27.69909" inkscape:current-layer="g3007" showgrid="true" inkscape:document-units="px" inkscape:grid-bbox="true" inkscape:window-width="1920" inkscape:window-height="1017" inkscape:window-x="-8" inkscape:window-y="-8" inkscape:window-maximized="1"/>
  <metadata id="metadata2990">
    <rdf:RDF>
      <cc:Work rdf:about="">
        <dc:format>image/svg+xml</dc:format>
        <dc:type rdf:resource="http://purl.org/dc/dcmitype/StillImage"/>
        <dc:title/>
      </cc:Work>
    </rdf:RDF>
  </metadata>
  <g id="layer1" inkscape:label="Layer 1" inkscape:groupmode="layer">
    <g id="g3007" transform="translate(-2.5628995,-5.4715776)">
      <g id="g3154" transform="matrix(0.54318055,0,0,0.59518072,8.7735861,5.6745114)" style="fill:#ffffff">
        <g id="g3018" style="fill:#ffffff">
          <path style="fill:#ffffff" inkscape:connector-curvature="0" d="m 85.326,15.75 c -1.977,0.475 -7.394,1.752 -9.326,1.975 -0.056,0.005 -0.551,0.049 -1.32,0.049 -1.179,0 -3.001,-0.102 -4.877,-0.594 -0.945,-0.172 -14.733,-2.703 -19.691,-4.585 -0.01,4.907 1.371,26.281 1.371,26.281 0.059,1.305 0.297,2.194 0.297,2.194 l -0.653,-0.178 c -0.89,-0.475 -3.381,0 -3.381,0 -21.886,3.617 -30.842,7.888 -30.842,7.888 -1.364,0.593 -1.542,2.017 -1.542,2.017 l -0.355,0.296 c -0.165,0.296 -0.201,1.047 -0.201,1.658 5.266,3.627 11.244,5.349 11.308,5.368 5.518,1.838 13.651,1.052 13.733,1.044 11.541,-1.102 27.351,-8.982 27.509,-9.062 0,0 0.357,-0.098 0.824,0.369 0.489,0.49 -0.185,0.903 -0.185,0.903 -0.656,0.33 -16.209,8.08 -28.009,9.207 -0.156,0.016 -1.948,0.188 -4.398,0.188 -2.913,0 -6.757,-0.245 -9.893,-1.29 -0.236,-0.066 -5.871,-1.69 -11.161,-5.192 0,0.002 -0.001,0.009 -0.001,0.009 1.542,12.218 12.93,16.252 12.93,16.252 l -1.305,19.098 c 0.949,2.373 5.813,4.271 5.813,4.271 4.982,1.542 9.371,0.474 9.371,0.474 C 51.9,91.899 70.049,82.765 70.049,82.765 l -0.356,-6.524 c -0.474,-2.135 -3.796,-2.61 -3.796,-2.61 -0.356,-6.999 1.423,-16.133 1.423,-16.133 0.474,-3.559 1.423,-3.677 1.423,-3.677 6.05,-2.609 5.101,-5.813 5.101,-5.813 9.727,-1.187 9.371,-2.729 9.371,-2.729 0.296,-2.47 1.663,-22.817 2.111,-29.529 z M 57.592,50.381 C 44.247,55.631 34.46,55.719 34.46,55.719 26.987,54.888 22.479,51.804 22.479,51.804 20.7,50.262 22.004,49.55 22.004,49.55 27.342,47.177 48.22,43.619 48.22,43.619 c 2.017,-0.475 10.558,4.507 10.558,4.507 1.898,1.306 -1.186,2.255 -1.186,2.255 z" id="path3020"/>
          <path style="fill:#ffffff" inkscape:connector-curvature="0" d="M 83.451,10.287 62.574,6.135 C 59.015,5.305 57.117,5.898 57.117,5.898 l -5.338,1.186 c -1.898,0.356 -1.542,1.542 -1.542,1.542 -0.134,0.603 -0.154,1.638 -0.147,2.427 3.37,1.507 15.394,3.895 19.995,4.732 l 0.055,0.012 c 2.87,0.76 5.687,0.516 5.714,0.513 1.979,-0.229 8.166,-1.708 9.57,-2.048 0.028,-0.42 0.043,-0.654 0.043,-0.654 0.001,-2.965 -2.016,-3.321 -2.016,-3.321 z M 68.504,8.667 c 0,0 -2.536,0.935 -5.606,0.067 V 8.133 c 0,0 0.884,-0.392 2.686,-0.526 0,0 2.261,-0.025 2.928,0.375 l -0.008,0.685 z" id="path3022"/>
        </g>
      </g>
    </g>
  </g>
</svg>